<svg width="600" height="450" viewBox="0 0 800 600" fill="none" xmlns="http://www.w3.org/2000/svg" data-reactroot="">
<path d="M615.968 269.895L648.969 231.821C641.071 217.153 617.322 179.526 585.506 146.356C553.69 113.186 484.229 87.2978 457.715 80.5285L433.25 118.734C452.43 126.913 505.289 151.602 536.428 172.587C567.567 193.572 602.429 246.203 615.968 269.895Z" fill="#B0C1E1"></path>
<path d="M324.666 525.515C411.849 594.807 579.994 366.746 637.859 242.841C574.717 260.288 488.751 153.161 453.03 96.6003C416.687 155.03 222.172 217.708 245.836 269.316C270.282 322.631 335.903 280.655 365.658 253.003C316.344 319.819 215.689 438.899 324.666 525.515Z" fill="#2249B3"></path>
<path fill-rule="evenodd" clip-rule="evenodd" d="M455.752 13.5227C458.274 11.2648 461.46 10.0001 465.279 10C470.025 9.99989 473.167 14.0643 475.065 18.8212C477.038 23.7649 478.126 30.4666 478.299 37.8335C478.644 52.5578 475.343 70.6769 467.197 84.0525L466.401 85.3599L464.893 85.0972C462.483 84.6774 460.5 82.738 458.94 80.558C457.306 78.2755 455.789 75.2385 454.446 71.7816C451.753 64.8535 449.624 55.8898 448.713 47.0134C447.806 38.1763 448.079 29.1744 450.391 22.2768C451.552 18.812 453.274 15.7415 455.752 13.5227ZM464.383 79.9603C471.222 67.6959 474.123 51.4266 473.807 37.9388C473.642 30.8726 472.596 24.7544 470.892 20.4865C469.115 16.0319 467.038 14.493 465.279 14.493C462.534 14.4931 460.424 15.3708 458.749 16.8702C457.031 18.4086 455.655 20.7102 454.651 23.7048C452.633 29.7262 452.303 37.9929 453.182 46.5545C454.057 55.0769 456.103 63.6422 458.633 70.1539C459.902 73.4169 461.258 76.0775 462.594 77.9429C463.273 78.8915 463.875 79.5359 464.383 79.9603Z" fill="#FF7373"></path>
<path fill-rule="evenodd" clip-rule="evenodd" d="M459.808 11.1912C461.184 10.6254 463.162 10.0007 465.284 10.0006C467.725 10.0006 469.764 11.2217 471.356 12.9668C472.93 14.6907 474.194 17.048 475.198 19.7292C477.212 25.105 478.375 32.3076 478.597 39.9341C478.821 47.5808 478.102 55.7992 476.256 63.242C474.419 70.6478 471.412 77.4948 466.904 82.1852L463.559 79.5698C467.302 75.6761 470.152 69.1853 471.895 62.1601C473.629 55.1718 474.319 47.3678 474.106 40.0651C473.893 32.7423 472.775 26.0685 470.991 21.3054C470.096 18.9171 469.081 17.1393 468.038 15.9955C467.013 14.8728 466.096 14.4936 465.284 14.4936C460.983 14.4937 460.282 14.4936 458.111 13.7079C458.254 13.0734 457.414 12.3869 457.414 12.3869L457.423 12.3816L457.437 12.3727L457.48 12.3464C457.515 12.3253 457.562 12.2969 457.621 12.2624C457.739 12.1935 457.905 12.0998 458.111 11.9895C458.523 11.7697 459.105 11.4804 459.808 11.1912Z" fill="#FF7373"></path>
<path d="M457.759 80.5328L433.25 119.323C441.148 133.991 464.897 171.618 496.713 204.788C528.529 237.958 597.465 263.127 623.978 269.896L648.969 232.41C629.789 224.231 576.93 199.542 545.791 178.557C514.652 157.572 471.298 104.225 457.759 80.5328Z" fill="#FF7373"></path>
<path d="M394.545 531.342C368.56 541.653 344.516 541.29 324.668 525.514C238.133 456.737 283.778 367.489 330.939 300.193C307.533 355.888 287.304 455.885 356.904 506.119C370.434 515.883 382.982 524.229 394.545 531.342Z" fill="black" fill-opacity="0.35"></path>
<path d="M311.726 194.568C268.508 220.789 235.223 246.167 245.837 269.316C267.414 316.373 321.068 289.196 353.825 263.154C337.558 270.951 308.457 278.542 286.321 262.814C269.187 250.64 288.318 220.69 311.726 194.568Z" fill="black" fill-opacity="0.35"></path>
</svg>
