<svg width="72" height="72" viewBox="0 0 24 24" fill="none" xmlns="http://www.w3.org/2000/svg" data-reactroot="">
<path fill="#fefcfc" d="M11.2032 12.9945V12.1249C11.2032 11.2254 11.9337 10.4958 12.8343 10.4958C13.735 10.4958 14.4655 11.2254 14.4655 12.1249V12.9945V12.6247C14.4655 11.7251 15.196 10.9955 16.0966 10.9955C16.9972 10.9955 17.7277 11.7251 17.7277 12.6247V12.9945H17.7377V13.0245C17.7377 12.1849 18.4682 11.4953 19.3689 11.4953C20.2695 11.4953 21 12.1849 21 13.0245V16.5027C21 19.5512 18.3882 22 15.1359 22H13.755C12.374 22 11.1432 21.5402 10.1725 20.8506L3.48784 14.6737C2.83739 14.064 2.83739 13.0145 3.48784 12.4048C4.13829 11.7951 5.11897 11.925 5.76942 12.5347L7.95094 14.5137V3.52924C7.93092 2.68966 8.66143 2 9.56206 2C10.4627 2 11.1932 2.68966 11.1932 3.52924V12.9945" undefined="1"></path>
</svg>
